#N canvas 350 178 503 296 10;
#N canvas 92 67 793 577 benjolinOsc1 0;
#X obj 237 180 *~;
#X obj 252 154 line~;
#X obj 252 133 pack 0 50;
#X obj 252 108 / 2;
#X obj 237 56 r~ runglerOut;
#X obj 252 81 r oscRungle1;
#X obj 72 55 r oscFreq1;
#X obj 85 330 throw~ scope0;
#X obj 72 142 line~;
#X obj 73 283 bl-tri.mmb~;
#X obj 73 196 +~;
#X obj 72 119 pack 0 50;
#X obj 73 253 mtof~;
#X obj 73 230 clip~ -60 127;
#X obj 72 96 maxlib/scale 0 127 -60 80;
#X obj 194 315 expr~ if ($v1 > 0.5 \, 1 \, 0);
#X obj 192 382 throw~ scope1;
#X obj 233 358 s~ oscPulse1;
#X obj 69 363 s~ triangle1;
#X connect 0 0 10 1;
#X connect 1 0 0 1;
#X connect 2 0 1 0;
#X connect 3 0 2 0;
#X connect 4 0 0 0;
#X connect 5 0 3 0;
#X connect 6 0 14 0;
#X connect 8 0 10 0;
#X connect 9 0 7 0;
#X connect 9 0 15 0;
#X connect 9 0 18 0;
#X connect 10 0 13 0;
#X connect 11 0 8 0;
#X connect 12 0 9 0;
#X connect 13 0 12 0;
#X connect 14 0 11 0;
#X connect 15 0 16 0;
#X connect 15 0 17 0;
#X restore 31 25 pd benjolinOsc1;
#N canvas 143 69 829 528 comparator 0;
#X obj 102 76 +~;
#X obj 102 157 s~ PWMmix;
#X obj 98 113 expr~ if ($v1 > 0.5 \, 1 \, 0);
#X obj 77 191 throw~ scope4;
#X obj 54 35 r~ triangle1;
#X obj 182 38 r~ triangle2;
#X connect 0 0 2 0;
#X connect 2 0 1 0;
#X connect 2 0 3 0;
#X connect 4 0 0 0;
#X connect 5 0 0 1;
#X restore 31 67 pd comparator;
#N canvas 317 39 737 602 rungler 0;
#X obj 358 259 samphold~;
#X obj 358 280 samphold~;
#X obj 358 301 samphold~;
#X obj 358 322 samphold~;
#X obj 358 343 samphold~;
#X obj 358 364 samphold~;
#X obj 358 385 samphold~;
#X obj 358 406 samphold~;
#X obj 515 47 r~ oscPulse2;
#X obj 513 331 >~ 0.5;
#X obj 160 478 expr~ (($v1/8)+($v2/4)+($v3/2));
#X obj 160 507 s~ runglerOut;
#X obj 124 530 throw~ scope5;
#X obj 190 121 clip~ 0 1;
#X obj 216 207 expr~ ($v1*-1)+1;
#X obj 190 41 r~ oscPulse1;
#X obj 262 269 s~ XORpulse;
#X obj 190 75 >~ 0.5;
#X obj 226 159 <~;
#X obj 143 156 >~;
#X obj 182 185 ==~;
#X connect 0 0 1 0;
#X connect 1 0 2 0;
#X connect 2 0 3 0;
#X connect 3 0 4 0;
#X connect 4 0 5 0;
#X connect 5 0 6 0;
#X connect 5 0 10 0;
#X connect 6 0 7 0;
#X connect 6 0 10 1;
#X connect 7 0 10 2;
#X connect 8 0 9 0;
#X connect 9 0 0 1;
#X connect 9 0 1 1;
#X connect 9 0 2 1;
#X connect 9 0 3 1;
#X connect 9 0 4 1;
#X connect 9 0 5 1;
#X connect 9 0 6 1;
#X connect 9 0 7 1;
#X connect 10 0 11 0;
#X connect 10 0 12 0;
#X connect 13 0 18 0;
#X connect 13 0 19 0;
#X connect 14 0 16 0;
#X connect 14 0 0 0;
#X connect 15 0 17 0;
#X connect 17 0 13 0;
#X connect 18 0 20 1;
#X connect 19 0 20 0;
#X connect 19 0 7 0;
#X connect 20 0 14 0;
#X restore 31 87 pd rungler;
#N canvas 21 69 950 650 filter 0;
#X obj 194 367 +~ 100;
#X obj 194 391 dbtorms~;
#X obj 154 457 multimode.mmb~;
#X obj 142 521 biquad.mmb~;
#X obj 154 256 mtof~;
#X obj 259 104 line~;
#X msg 259 78 \$1 50;
#X obj 353 283 / 127;
#X obj 353 339 line~;
#X msg 353 309 \$1 50;
#X obj 194 283 maxlib/scale 0 127 -3 30;
#X obj 194 339 line~;
#X msg 194 309 \$1 50;
#X obj 194 415 clip~ 0 32;
#X text 448 392 Derek Holzer;
#X text 448 405 Sept 2016;
#X text 448 416 macumbista@gmail.com;
#X obj 342 135 *~;
#X obj 342 51 / 127;
#X obj 342 107 line~;
#X msg 342 77 \$1 50;
#X obj 437 73 *~ 127;
#X obj 142 108 +~;
#X obj 529 136 *~;
#X obj 529 52 / 127;
#X obj 529 108 line~;
#X msg 529 78 \$1 50;
#X obj 617 79 *~ 127;
#X obj 154 202 expr~ $v1+$v2+$v3+$v4;
#X text 446 254 FILRES: -3dB to 30dB;
#X text 448 368 MULTIMODE RESONANT VOLTAGE CONTROLLED FILTER;
#X obj 157 78 *~ 0.5;
#X obj 154 229 clip~ 0 127;
#X text 447 290 FILTYPE: Mode: 0 = lowpass 0.5 = bandpass 1 = highpass
;
#X obj 257 25 r filterFreq;
#X obj 342 24 r filterRungle;
#X obj 438 24 r~ runglerOut;
#X obj 619 24 r~ triangle2;
#X obj 391 227 r filterType;
#X obj 339 248 f;
#X msg 342 227 0.5;
#X obj 345 205 loadbang;
#X obj 194 256 r filterRes;
#X obj 157 52 r~ runglerOut;
#X obj 529 25 r filterSweep;
#X obj 142 548 s~ filterOut;
#X obj 142 25 r~ PWMmix;
#X obj 636 153 throw~ scope6;
#X connect 0 0 1 0;
#X connect 1 0 13 0;
#X connect 2 0 3 1;
#X connect 2 1 3 2;
#X connect 2 2 3 3;
#X connect 2 3 3 4;
#X connect 2 4 3 5;
#X connect 3 0 45 0;
#X connect 4 0 2 0;
#X connect 5 0 28 0;
#X connect 6 0 5 0;
#X connect 7 0 9 0;
#X connect 8 0 2 2;
#X connect 9 0 8 0;
#X connect 10 0 12 0;
#X connect 11 0 0 0;
#X connect 12 0 11 0;
#X connect 13 0 2 1;
#X connect 17 0 28 2;
#X connect 18 0 20 0;
#X connect 19 0 17 0;
#X connect 20 0 19 0;
#X connect 21 0 17 1;
#X connect 22 0 3 0;
#X connect 23 0 28 3;
#X connect 24 0 26 0;
#X connect 25 0 23 0;
#X connect 26 0 25 0;
#X connect 27 0 23 1;
#X connect 28 0 32 0;
#X connect 31 0 22 1;
#X connect 32 0 4 0;
#X connect 34 0 6 0;
#X connect 35 0 18 0;
#X connect 36 0 21 0;
#X connect 37 0 27 0;
#X connect 38 0 7 0;
#X connect 39 0 7 0;
#X connect 40 0 39 0;
#X connect 41 0 40 0;
#X connect 42 0 10 0;
#X connect 43 0 31 0;
#X connect 44 0 24 0;
#X connect 46 0 22 0;
#X restore 31 108 pd filter;
#N canvas 0 23 421 477 benjolinOsc2 0;
#X obj 237 180 *~;
#X obj 252 154 line~;
#X obj 252 133 pack 0 50;
#X obj 252 108 / 2;
#X obj 237 56 r~ runglerOut;
#X obj 72 142 line~;
#X obj 73 282 bl-tri.mmb~;
#X obj 73 195 +~;
#X obj 72 119 pack 0 50;
#X obj 73 252 mtof~;
#X obj 73 229 clip~ -60 127;
#X obj 72 96 maxlib/scale 0 127 -60 80;
#X obj 194 314 expr~ if ($v1 > 0.5 \, 1 \, 0);
#X obj 72 63 r oscFreq2;
#X obj 252 81 r oscRungle2;
#X obj 228 354 s~ oscPulse2;
#X obj 192 381 throw~ scope3;
#X obj 85 329 throw~ scope2;
#X obj 69 362 s~ triangle2;
#X connect 0 0 7 1;
#X connect 1 0 0 1;
#X connect 2 0 1 0;
#X connect 3 0 2 0;
#X connect 4 0 0 0;
#X connect 5 0 7 0;
#X connect 6 0 12 0;
#X connect 6 0 17 0;
#X connect 6 0 18 0;
#X connect 7 0 10 0;
#X connect 8 0 5 0;
#X connect 9 0 6 0;
#X connect 10 0 9 0;
#X connect 11 0 8 0;
#X connect 12 0 15 0;
#X connect 12 0 16 0;
#X connect 13 0 11 0;
#X connect 14 0 3 0;
#X restore 31 46 pd benjolinOsc2;
#N canvas 459 23 742 401 outputStage 0;
#X obj 135 30 r~ triangle2;
#X obj 252 30 r~ oscPulse1;
#X obj 338 31 r~ oscPulse2;
#X obj 424 31 r~ PWMmix;
#X obj 491 32 r~ runglerOut;
#X obj 587 33 r~ filterOut;
#X obj 594 76 dac~;
#X obj 50 29 r~ triangle1;
#X obj 499 77 r~ XORpulse;
#X connect 5 0 6 0;
#X connect 5 0 6 1;
#X restore 32 148 pd outputStage;
#N canvas 108 283 1295 691 scopes 0;
#X obj 48 73 clip~ -1 1;
#X obj 80 102 loadbang;
#X obj 85 152 metro 100;
#X text 84 124 1;
#X msg 84 124 1;
#N canvas 0 22 450 300 (subpatch) 0;
#X array scope0 256 float 2;
#X coords 0 1 256 -1 200 140 1 0 0;
#X restore 163 70 graph;
#X obj 53 296 clip~ -1 1;
#X obj 85 325 loadbang;
#X obj 90 375 metro 100;
#X text 89 347 1;
#X msg 89 347 1;
#N canvas 0 22 450 300 (subpatch) 0;
#X array scope1 256 float 2;
#X coords 0 1 256 -1 200 140 1 0 0;
#X restore 168 293 graph;
#X obj 56 522 clip~ -1 1;
#X obj 88 551 loadbang;
#X obj 93 601 metro 100;
#X text 92 573 1;
#X msg 92 573 1;
#N canvas 0 22 450 300 (subpatch) 0;
#X array scope2 256 float 2;
#X coords 0 1 256 -1 200 140 1 0 0;
#X restore 171 519 graph;
#X obj 426 68 clip~ -1 1;
#X obj 458 97 loadbang;
#X obj 463 147 metro 100;
#X text 462 119 1;
#X msg 462 119 1;
#N canvas 0 22 450 300 (subpatch) 0;
#X array scope3 256 float 2;
#X coords 0 1 256 -1 200 140 1 0 0;
#X restore 541 65 graph;
#X obj 432 298 clip~ -1 1;
#X obj 464 327 loadbang;
#X obj 469 377 metro 100;
#X text 468 349 1;
#X msg 468 349 1;
#N canvas 0 22 450 300 (subpatch) 0;
#X array scope4 256 float 2;
#X coords 0 1 256 -1 200 140 1 0 0;
#X restore 547 295 graph;
#X obj 437 521 clip~ -1 1;
#X obj 469 550 loadbang;
#X obj 474 600 metro 100;
#X text 473 572 1;
#X msg 473 572 1;
#N canvas 0 22 450 300 (subpatch) 0;
#X array scope5 256 float 2;
#X coords 0 1 256 -1 200 140 1 0 0;
#X restore 552 518 graph;
#X obj 26 13 catch~ scope0;
#X obj 31 236 catch~ scope1;
#X obj 34 462 catch~ scope2;
#X obj 404 8 catch~ scope3;
#X obj 410 238 catch~ scope4;
#X obj 415 461 catch~ scope5;
#X obj 54 625 tabwrite~ scope2;
#X obj 424 171 tabwrite~ scope3;
#X obj 430 401 tabwrite~ scope4;
#X obj 435 624 tabwrite~ scope5;
#X obj 46 176 tabwrite~ scope0;
#X obj 51 399 tabwrite~ scope1;
#X obj 808 64 clip~ -1 1;
#X obj 840 93 loadbang;
#X obj 845 143 metro 100;
#X text 844 115 1;
#X msg 844 115 1;
#N canvas 0 22 450 300 (subpatch) 0;
#X array scope6 256 float 2;
#X coords 0 1 256 -1 200 140 1 0 0;
#X restore 923 61 graph;
#X obj 786 4 catch~ scope6;
#X obj 806 167 tabwrite~ scope6;
#X obj 809 290 clip~ -1 1;
#X obj 841 319 loadbang;
#X obj 846 369 metro 100;
#X text 845 341 1;
#X msg 845 341 1;
#N canvas 0 22 450 300 (subpatch) 0;
#X array scope7 256 float 2;
#X coords 0 1 256 -1 200 140 1 0 0;
#X restore 924 287 graph;
#X obj 787 230 catch~ scope7;
#X obj 807 393 tabwrite~ scope7;
#X obj 810 527 clip~ -1 1;
#X obj 842 556 loadbang;
#X obj 847 606 metro 100;
#X text 846 578 1;
#X msg 846 578 1;
#N canvas 0 22 450 300 (subpatch) 0;
#X array previewScope 256 float 2;
#X coords 0 1 256 -1 200 140 1 0 0;
#X restore 925 524 graph;
#X obj 788 467 catch~ previewScope;
#X obj 786 635 tabwrite~ previewScope;
#X connect 0 0 46 0;
#X connect 1 0 4 0;
#X connect 2 0 46 0;
#X connect 4 0 2 0;
#X connect 6 0 47 0;
#X connect 7 0 10 0;
#X connect 8 0 47 0;
#X connect 10 0 8 0;
#X connect 12 0 42 0;
#X connect 13 0 16 0;
#X connect 14 0 42 0;
#X connect 16 0 14 0;
#X connect 18 0 43 0;
#X connect 19 0 22 0;
#X connect 20 0 43 0;
#X connect 22 0 20 0;
#X connect 24 0 44 0;
#X connect 25 0 28 0;
#X connect 26 0 44 0;
#X connect 28 0 26 0;
#X connect 30 0 45 0;
#X connect 31 0 34 0;
#X connect 32 0 45 0;
#X connect 34 0 32 0;
#X connect 36 0 0 0;
#X connect 37 0 6 0;
#X connect 38 0 12 0;
#X connect 39 0 18 0;
#X connect 40 0 24 0;
#X connect 41 0 30 0;
#X connect 48 0 55 0;
#X connect 49 0 52 0;
#X connect 50 0 55 0;
#X connect 52 0 50 0;
#X connect 54 0 48 0;
#X connect 56 0 63 0;
#X connect 57 0 60 0;
#X connect 58 0 63 0;
#X connect 60 0 58 0;
#X connect 62 0 56 0;
#X connect 64 0 71 0;
#X connect 65 0 68 0;
#X connect 66 0 71 0;
#X connect 68 0 66 0;
#X connect 70 0 64 0;
#X restore 31 128 pd scopes;
#X obj 166 48 s oscFreq1;
#X obj 170 26 hsl 128 15 0 127 0 0 empty empty empty -2 -8 0 10 -262144
-1 -1 9600 1;
#X obj 168 71 hsl 128 15 0 127 0 0 empty empty empty -2 -8 0 10 -262144
-1 -1 5000 1;
#X obj 165 93 s oscFreq2;
#X obj 316 26 hsl 128 15 0 127 0 0 empty empty empty -2 -8 0 10 -262144
-1 -1 5100 1;
#X obj 315 71 hsl 128 15 0 127 0 0 empty empty empty -2 -8 0 10 -262144
-1 -1 2700 1;
#X obj 313 48 s oscRungle1;
#X obj 312 93 s oscRungle2;
#X obj 166 139 hsl 128 15 0 127 0 0 empty empty empty -2 -8 0 10 -262144
-1 -1 7700 1;
#X obj 165 184 hsl 128 15 0 127 0 0 empty empty empty -2 -8 0 10 -262144
-1 -1 2500 1;
#X obj 313 139 hsl 128 15 0 127 0 0 empty empty empty -2 -8 0 10 -262144
-1 -1 7600 1;
#X obj 312 184 hsl 128 15 0 127 0 0 empty empty empty -2 -8 0 10 -262144
-1 -1 6100 1;
#X obj 163 161 s filterFreq;
#X obj 310 161 s filterRungle;
#X obj 162 206 s filterSweep;
#X obj 309 206 s filterRes;
#X connect 8 0 7 0;
#X connect 9 0 10 0;
#X connect 11 0 13 0;
#X connect 12 0 14 0;
#X connect 15 0 19 0;
#X connect 16 0 21 0;
#X connect 17 0 20 0;
#X connect 18 0 22 0;
