#N canvas 317 80 826 623 10;
#X obj 307 487 dac~;
#X obj 345 136 rpole~ 1;
#X obj 346 343 *~ 0.5;
#X obj 346 317 lop~ 4000;
#X obj 346 292 expr~ ((($v1&0xff)^0x80)-128)/128;
#X obj 345 111 sig~ 0.781405;
#X floatatom 344 79 5 0 0 0 - - -, f 5;
#X obj 346 245 bytebeat~;
#X obj 346 55 hsl 128 15 -10 10 0 0 empty empty empty -2 -8 0 10 -262144
-1 -1 6985 1;
#X obj 421 147 hsl 128 15 1 94 0 0 empty empty empty -2 -8 0 10 -262144
-1 -1 0 1;
#X floatatom 385 194 5 0 0 0 - - -, f 5;
#X msg 358 219 formula \$1;
#X obj 403 173 f;
#X obj 345 24 r speed;
#X obj 437 117 r formula;
#X msg 583 344 wet \$1;
#X msg 631 344 dry \$1;
#X obj 581 292 hsl 128 15 0 1 0 0 empty empty empty -2 -8 0 10 -262144
-1 -1 0 1;
#N canvas 1 80 450 300 inv 0;
#X obj 154 69 inlet;
#X obj 154 179 outlet;
#X msg 154 124 1;
#X obj 154 97 t b f;
#X obj 154 151 -;
#X connect 0 0 3 0;
#X connect 2 0 4 0;
#X connect 3 0 2 0;
#X connect 3 1 4 1;
#X connect 4 0 1 0;
#X restore 631 317 pd inv;
#X floatatom 689 342 5 0 0 0 - - -, f 5;
#X text 699 272 wet;
#X floatatom 590 318 5 0 0 0 - - -, f 5;
#X obj 586 179 loadbang;
#X obj 655 206 abs;
#X obj 654 231 / 7;
#X obj 611 207 t f b;
#X floatatom 586 233 5 0 0 0 - - -, f 5;
#X obj 619 272 line 0 200;
#X obj 586 251 pack f 500;
#X msg 577 207 0;
#X obj 657 161 r reverb;
#X obj 353 446 freeverb~;
#X obj 161 29 loadbang;
#X msg 162 66 \; speed 1 \; formula 0 \; reverb 0 \; \;;
#X connect 1 0 7 0;
#X connect 2 0 31 0;
#X connect 2 0 31 1;
#X connect 3 0 2 0;
#X connect 4 0 3 0;
#X connect 5 0 1 0;
#X connect 6 0 5 0;
#X connect 7 0 4 0;
#X connect 8 0 6 0;
#X connect 9 0 12 0;
#X connect 10 0 11 0;
#X connect 11 0 7 0;
#X connect 12 0 10 0;
#X connect 13 0 8 0;
#X connect 14 0 9 0;
#X connect 15 0 31 0;
#X connect 16 0 31 0;
#X connect 17 0 15 0;
#X connect 17 0 18 0;
#X connect 17 0 21 0;
#X connect 18 0 16 0;
#X connect 18 0 19 0;
#X connect 22 0 29 0;
#X connect 23 0 24 0;
#X connect 24 0 25 0;
#X connect 25 0 26 0;
#X connect 25 1 26 0;
#X connect 26 0 28 0;
#X connect 27 0 17 0;
#X connect 28 0 27 0;
#X connect 29 0 17 0;
#X connect 30 0 23 0;
#X connect 31 0 0 0;
#X connect 31 1 0 1;
#X connect 32 0 33 0;
