#N canvas 523 66 826 623 10;
#X obj 346 372 dac~;
#X obj 345 136 rpole~ 1;
#X obj 346 343 *~ 0.5;
#X obj 346 317 lop~ 4000;
#X obj 346 292 expr~ ((($v1&0xff)^0x80)-128)/128;
#X obj 345 111 sig~ 0.781405;
#X floatatom 344 79 5 0 0 0 - - -, f 5;
#X obj 346 245 bytebeat~;
#X obj 342 43 hsl 128 15 -10 10 0 0 empty empty empty -2 -8 0 10 -262144
-1 -1 0 1;
#X obj 424 152 hsl 128 15 1 94 0 0 empty empty empty -2 -8 0 10 -262144
-1 -1 1700 1;
#X floatatom 385 194 5 0 0 0 - - -, f 5;
#X msg 358 219 formula \$1;
#X obj 403 173 f;
#X connect 1 0 7 0;
#X connect 2 0 0 0;
#X connect 2 0 0 1;
#X connect 3 0 2 0;
#X connect 4 0 3 0;
#X connect 5 0 1 0;
#X connect 6 0 5 0;
#X connect 7 0 4 0;
#X connect 8 0 6 0;
#X connect 9 0 12 0;
#X connect 10 0 11 0;
#X connect 11 0 7 0;
#X connect 12 0 10 0;
