#N canvas 0 23 826 623 10;
#X obj 346 372 dac~;
#X obj 345 136 rpole~ 1;
#X obj 346 343 *~ 0.5;
#X obj 346 317 lop~ 4000;
#X obj 346 292 expr~ ((($v1&0xff)^0x80)-128)/128;
#X obj 345 111 sig~ 0.781405;
#X floatatom 345 87 5 0 0 0 - - -, f 5;
#X obj 346 206 bytebeat~;
#X connect 1 0 7 0;
#X connect 2 0 0 0;
#X connect 2 0 0 1;
#X connect 3 0 2 0;
#X connect 4 0 3 0;
#X connect 5 0 1 0;
#X connect 6 0 5 0;
#X connect 7 0 4 0;
